<svg fill="#000000" xmlns="http://www.w3.org/2000/svg"  viewBox="0 0 50 50" width="50px" height="50px"><path d="M 5 7 C 2.242188 7 0 9.242188 0 12 L 0 38 C 0 40.757813 2.242188 43 5 43 L 45 43 C 47.757813 43 50 40.757813 50 38 L 50 12 C 50 9.242188 47.757813 7 45 7 Z M 21.1875 21.90625 C 21.707031 21.90625 22.15625 22.042969 22.6875 22.3125 L 22.6875 23.71875 C 22.183594 23.226563 21.730469 23.03125 21.15625 23.03125 C 20.023438 23.03125 19.125 23.96875 19.125 25.15625 C 19.125 26.410156 20 27.28125 21.21875 27.28125 C 21.765625 27.28125 22.203125 27.078125 22.6875 26.59375 L 22.6875 28.03125 C 22.136719 28.289063 21.675781 28.375 21.15625 28.375 C 19.316406 28.375 17.875 26.976563 17.875 25.15625 C 17.875 23.355469 19.355469 21.90625 21.1875 21.90625 Z M 15.46875 21.9375 C 16.148438 21.9375 16.761719 22.171875 17.28125 22.625 L 16.65625 23.46875 C 16.339844 23.117188 16.050781 22.96875 15.6875 22.96875 C 15.167969 22.96875 14.78125 23.265625 14.78125 23.65625 C 14.78125 23.992188 14.992188 24.167969 15.71875 24.4375 C 17.09375 24.941406 17.5 25.390625 17.5 26.375 C 17.5 27.574219 16.628906 28.40625 15.375 28.40625 C 14.457031 28.40625 13.777344 28.035156 13.21875 27.21875 L 14 26.46875 C 14.277344 27.007813 14.738281 27.28125 15.3125 27.28125 C 15.851563 27.28125 16.25 26.910156 16.25 26.40625 C 16.25 25.808594 15.71875 25.683594 15.0625 25.4375 C 13.933594 25.011719 13.53125 24.570313 13.53125 23.71875 C 13.53125 22.703125 14.371094 21.9375 15.46875 21.9375 Z M 26.28125 21.9375 C 28.066406 21.9375 29.5 23.371094 29.5 25.15625 C 29.5 26.941406 28.066406 28.40625 26.28125 28.40625 C 24.496094 28.40625 23.03125 26.941406 23.03125 25.15625 C 23.03125 23.371094 24.496094 21.9375 26.28125 21.9375 Z M 5.90625 22.0625 L 7.6875 22.0625 C 9.648438 22.0625 11 23.328125 11 25.15625 C 11 26.121094 10.382813 28.25 7.6875 28.25 L 5.90625 28.25 Z M 11.5625 22.0625 L 12.78125 22.0625 L 12.78125 28.25 L 11.5625 28.25 Z M 29.28125 22.0625 L 30.59375 22.0625 L 32.25 26.21875 L 33.9375 22.0625 L 35.25 22.0625 L 32.5625 28.40625 L 31.90625 28.40625 Z M 35.78125 22.0625 L 39.21875 22.0625 L 39.21875 23.09375 L 37 23.09375 L 37 24.46875 L 39.125 24.46875 L 39.125 25.53125 L 37 25.53125 L 37 27.1875 L 39.21875 27.1875 L 39.21875 28.25 L 35.78125 28.25 Z M 40 22.0625 L 41.8125 22.0625 C 43.207031 22.0625 44 22.714844 44 23.875 C 44 24.824219 43.503906 25.46875 42.59375 25.65625 L 44.53125 28.25 L 43.03125 28.25 L 41.375 25.75 L 41.21875 25.75 L 41.21875 28.25 L 40 28.25 Z M 41.21875 23.03125 L 41.21875 24.90625 L 41.5625 24.90625 C 42.332031 24.90625 42.75 24.558594 42.75 23.9375 C 42.75 23.335938 42.347656 23.03125 41.59375 23.03125 Z M 7.125 23.09375 L 7.125 27.1875 L 7.4375 27.1875 C 9.613281 27.1875 9.75 25.621094 9.75 25.15625 C 9.75 24.183594 9.175781 23.09375 7.53125 23.09375 Z"/></svg>